<?xml version="1.0" encoding="utf-8"?>
<!-- Generator: Adobe Illustrator 24.0.2, SVG Export Plug-In . SVG Version: 6.00 Build 0)  -->
<svg version="1.1" id="Layer_1" xmlns="http://www.w3.org/2000/svg" xmlns:xlink="http://www.w3.org/1999/xlink" x="0px" y="0px"
	 viewBox="0 0 208.8 196" style="enable-background:new 0 0 208.8 196;" xml:space="preserve">
<style type="text/css">
	.st0{fill:#6697D7;}
	.st1{fill:#F1F1F1;}
</style>
<path class="st0" d="M101.3,19.8h11c46.3,0,83.9,36.6,83.9,81.8v0c0,45.2-37.6,81.8-83.9,81.8h-11c-46.3,0-83.9-36.6-83.9-81.8v0
	C17.4,56.4,55,19.8,101.3,19.8z"/>
<g>
	<path class="st1" d="M51.4,123.3l8.9,15.4l0,0c1.8,3.5,5.4,5.9,9.5,5.9l0,0l0,0h59.3l-12.3-21.3L51.4,123.3L51.4,123.3z"/>
	<path class="st1" d="M157.2,123.4c0-2.1-0.6-4.1-1.7-5.8l-34.8-60.4c-1.8-3.4-5.3-5.7-9.4-5.7H92.9l53.7,93l8.5-14.7
		C156.7,127,157.2,125.8,157.2,123.4z"/>
	<polygon class="st1" points="108.1,108.1 84.2,66.6 60.2,108.1 	"/>
</g>
</svg>
